# xmcd
#
# Track frame offsets:
#	150
#	15844
#	36334
#	56286
#	80743
#	103555
#	120405
#	141815
#	165567
#	189966
#	211406
#	227583
#	251425
#
# Disc length: 3766 seconds
#
# Revision: 3
# Processed by: cddbd v1.4PL0 Copyright (c) Steve Scherf et al.
# Submitted via: MusicWizard 6.0.1
#
DISCID=9b0eb40d
DTITLE=The Rolling Stones - Bridges to Babylon
DYEAR=1900
DGENRE=Rock
TTITLE0=Flip the switch
TTITLE1=Anybody seen my baby?
TTITLE2=Low down
TTITLE3=Already over me
TTITLE4=Gunface
TTITLE5=You don't have to mean it
TTITLE6=Out of control
TTITLE7=Saint of me
TTITLE8=Might as well get juiced
TTITLE9=Always suffering
TTITLE10=Too tight
TTITLE11=Thief in the night
TTITLE12=How can I stop
EXTD=
EXTT0=
EXTT1=
EXTT2=
EXTT3=
EXTT4=
EXTT5=
EXTT6=
EXTT7=
EXTT8=
EXTT9=
EXTT10=
EXTT11=
EXTT12=
PLAYORDER=
